<svg version="1.1" viewBox="0.0 0.0 156.9448818897638 155.23097112860893" fill="none" stroke="none" stroke-linecap="square" stroke-miterlimit="10" xmlns:xlink="http://www.w3.org/1999/xlink" xmlns="http://www.w3.org/2000/svg"><clipPath id="p.0"><path d="m0 0l156.94489 0l0 155.23097l-156.94489 0l0 -155.23097z" clip-rule="nonzero"/></clipPath><g clip-path="url(#p.0)"><path fill="#000000" fill-opacity="0.0" d="m0 0l156.94489 0l0 155.23097l-156.94489 0z" fill-rule="evenodd"/><path fill="#bae6fd" d="m5.6850395 77.438324l0 0c0 -40.47769 32.81365 -73.29134 73.291336 -73.29134l0 0c19.438072 0 38.08001 7.721744 51.8248 21.466536c13.744797 13.744793 21.466537 32.38673 21.466537 51.824806l0 0c0 40.477684 -32.813652 73.291336 -73.291336 73.291336l0 0c-40.47769 0 -73.291336 -32.813652 -73.291336 -73.291336z" fill-rule="evenodd"/><path fill="#000000" d="m115.3949 28.271532c-13.349091 0 -23.661652 3.133543 -30.937683 9.400633c-7.2760315 6.2476883 -10.914047 13.960281 -10.914047 23.13778c0 10.729721 3.8999481 19.043808 11.69986 24.942238c7.8193054 5.8984375 16.016968 11.05957 24.592987 15.483398c5.840225 2.9686203 11.17598 6.034256 16.007263 9.196899c4.8312836 3.1626434 7.246933 6.771553 7.246933 10.826736c0 4.2880096 -1.8238678 7.5670776 -5.4715805 9.837189c-3.6283112 2.2507324 -9.0804825 3.3760834 -16.356514 3.3760834c-5.1223297 0 -10.545395 -0.95072937 -16.26921 -2.8522034c-5.7238083 -1.901474 -10.428978 -3.8126373 -14.115501 -5.733513l-5.1805344 18.801262c2.7357864 2.3671417 8.129753 4.6857758 16.181892 6.955887c8.052147 2.2701263 14.639374 3.405182 19.761703 3.405182c14.649078 0 25.873573 -3.152954 33.67347 -9.458832c7.8193207 -6.325302 11.728973 -14.319229 11.728973 -23.981804c0 -10.38047 -3.967865 -18.578125 -11.903595 -24.592987c-7.916321 -6.0148544 -16.16249 -11.224495 -24.738503 -15.628914l-1.2514801 -0.7276077c-5.956642 -2.9880219 -11.05957 -5.9372406 -15.308769 -8.847656c-4.2297974 -2.9298172 -6.344696 -6.5969315 -6.344696 -11.001358c0 -4.171589 1.7559433 -7.266323 5.267845 -9.284214c3.5312958 -2.0372887 7.858116 -3.055935 12.980438 -3.055935c5.2387466 0 10.002121 0.80521774 14.290123 2.4156418c4.307419 1.6104279 8.304382 3.3081665 11.990906 5.0932236l7.683487 -18.597538c-4.637253 -2.2701225 -10.002121 -4.355915 -16.09459 -6.257387c-6.0730515 -1.9014702 -12.146118 -2.8522034 -18.219177 -2.8522034z" fill-rule="evenodd"/><path fill="#1e40af" d="m22.876175 -9.5396634E-4l-22.875843 3.230558l47.206894 118.36648l19.674389 0l47.381516 -121.59704l-23.428818 0l-33.440643 89.96085l-34.517494 -89.96085z" fill-rule="evenodd"/></g></svg>